<svg width="58" height="39" viewBox="0 0 58 39" fill="none" xmlns="http://www.w3.org/2000/svg">
<path d="M27.5263 38.9999C22.7111 38.9999 18.0322 38.4555 13.9959 37.4251C12.2227 36.9725 10.9854 35.4794 10.9854 33.7926V21.3471C10.9854 19.6619 12.2227 18.1672 13.9959 17.7113C15.2057 17.404 16.4781 17.1384 17.7763 16.923C18.0267 16.8812 18.2661 17.0315 18.3121 17.2587C18.3582 17.4858 18.1924 17.7029 17.942 17.7447C16.6696 17.9568 15.4267 18.2156 14.2445 18.5162C12.8672 18.8703 11.906 20.0344 11.906 21.3471V33.7926C11.906 35.107 12.8691 36.271 14.2464 36.6217C18.2016 37.6321 22.794 38.1649 27.5263 38.1649C32.2585 38.1649 36.8546 37.6305 40.8098 36.6217C42.1872 36.271 43.1502 35.107 43.1502 33.7926V21.3471C43.1502 20.0327 42.1872 18.8686 40.8098 18.5146C40.1525 18.3492 39.5522 18.2106 38.9777 18.0937C38.7291 18.0436 38.5744 17.8198 38.6297 17.5944C38.6849 17.3689 38.9316 17.2286 39.1802 17.2787C39.7695 17.399 40.3845 17.5392 41.0584 17.7096C42.8335 18.1655 44.0709 19.6603 44.0709 21.3454V33.7909C44.0709 35.4777 42.8316 36.9725 41.0602 37.4234C37.0258 38.4538 32.3451 38.9983 27.5281 38.9983L27.5263 38.9999Z" fill="#282315"/>
<path d="M27.5286 35.3724C23.7225 35.3724 19.9643 35.0034 16.6627 34.3036C15.6739 34.0948 14.9834 33.3015 14.9834 32.3746V29.6724C14.9834 29.4419 15.1896 29.2549 15.4437 29.2549C15.6978 29.2549 15.9041 29.4419 15.9041 29.6724V32.3746C15.9041 32.9107 16.3018 33.37 16.8708 33.4902C20.1042 34.175 23.7906 34.5374 27.5267 34.5374C31.8005 34.5374 35.9362 34.0714 39.4901 33.1896C39.735 33.1278 39.989 33.2598 40.0553 33.4819C40.1216 33.704 39.978 33.9345 39.7331 33.9946C36.1019 34.8948 31.8815 35.3708 27.5267 35.3708L27.5286 35.3724Z" fill="#282315"/>
<path d="M27.9453 23.6221C23.9503 23.6221 20.7002 20.4522 20.7002 16.5559C20.7002 12.6596 23.9503 9.48975 27.9453 9.48975C31.9403 9.48975 35.1904 12.6596 35.1904 16.5559C35.1904 20.4522 31.9403 23.6221 27.9453 23.6221ZM27.9453 10.3248C24.4229 10.3248 21.5564 13.1205 21.5564 16.5559C21.5564 19.9913 24.4229 22.787 27.9453 22.787C31.4677 22.787 34.3342 19.9913 34.3342 16.5559C34.3342 13.1205 31.4677 10.3248 27.9453 10.3248Z" fill="#282315"/>
<path d="M28.4902 20.6007C26.0319 20.6007 24.0322 18.787 24.0322 16.5557C24.0322 16.3252 24.2385 16.1382 24.4926 16.1382C24.7467 16.1382 24.9529 16.3252 24.9529 16.5557C24.9529 18.326 26.5402 19.7656 28.4902 19.7656C28.7443 19.7656 28.9505 19.9527 28.9505 20.1832C28.9505 20.4136 28.7443 20.6007 28.4902 20.6007Z" fill="#282315"/>
<path d="M43.125 15.6887C39.8773 15.6887 37.2354 13.0951 37.2354 9.90687C37.2354 6.71866 39.8773 4.125 43.125 4.125C46.3726 4.125 49.0146 6.71866 49.0146 9.90687C49.0146 13.0951 46.3726 15.6887 43.125 15.6887ZM43.125 4.96005C40.3469 4.96005 38.086 7.1796 38.086 9.90687C38.086 12.6341 40.3469 14.8537 43.125 14.8537C45.9031 14.8537 48.164 12.6341 48.164 9.90687C48.164 7.1796 45.9031 4.96005 43.125 4.96005Z" fill="#282315"/>
<path d="M43.6113 12.6658C41.9338 12.6658 40.5693 11.4282 40.5693 9.90678C40.5693 9.67631 40.7756 9.48926 41.0297 9.48926C41.2838 9.48926 41.49 9.67631 41.49 9.90678C41.49 10.969 42.442 11.8307 43.6113 11.8307C43.8654 11.8307 44.0716 12.0178 44.0716 12.2483C44.0716 12.4787 43.8654 12.6658 43.6113 12.6658Z" fill="#282315"/>
<path d="M30.6738 7.52211C28.5911 7.52211 26.8975 5.83531 26.8975 3.76105C26.8975 1.6868 28.5911 0 30.6738 0C32.7565 0 34.4502 1.6868 34.4502 3.76105C34.4502 5.83531 32.7565 7.52211 30.6738 7.52211ZM30.6738 0.836719C29.0539 0.836719 27.7359 2.14942 27.7359 3.76273C27.7359 5.37604 29.0539 6.68872 30.6738 6.68872C32.2937 6.68872 33.6117 5.37604 33.6117 3.76273C33.6117 2.14942 32.2937 0.836719 30.6738 0.836719Z" fill="#282315"/>
</svg>
