<svg width="50" height="50" viewBox="0 0 50 50" fill="none" xmlns="http://www.w3.org/2000/svg">
<path d="M32.6727 34.5491C32.4055 34.5491 32.0848 34.4422 31.8711 34.2285L27.7022 30.3807C27.4885 30.167 27.3281 29.8998 27.3281 29.5791C27.3281 29.2585 27.435 28.9913 27.6488 28.7241L28.2902 28.0294C28.5039 27.8156 28.7712 27.6553 29.0918 27.6553C29.4125 27.6553 29.6798 27.7622 29.947 27.9759L34.1158 31.8236C34.5968 32.2512 34.6503 32.9993 34.1158 33.4803L33.4744 34.175C33.2607 34.3888 32.9934 34.5491 32.6727 34.5491ZM29.1453 28.2966C28.985 28.2966 28.8781 28.35 28.7712 28.4569L28.1298 29.1516C28.0229 29.2585 27.9695 29.4188 27.9695 29.5791C27.9695 29.7395 27.9695 29.8463 28.1298 29.9532L32.2986 33.8009C32.4055 33.9078 32.5659 33.9613 32.7262 33.9613C32.8865 33.9613 32.9934 33.9613 33.1003 33.8009L33.7417 33.1062C33.9555 32.8925 33.9555 32.5184 33.7417 32.3046L29.5729 28.4569C29.466 28.35 29.3591 28.2966 29.1987 28.2966H29.1453Z" fill="#A38B51"/>
<path d="M21.8651 30.1618C20.0906 30.1618 18.3055 29.5259 16.8946 28.2326C13.8962 25.4911 13.6824 20.8204 16.4296 17.8224C19.1714 14.8243 23.8426 14.6159 26.8409 17.3574C29.8392 20.0989 30.0477 24.7696 27.3059 27.7677C25.8521 29.3549 23.8639 30.1618 21.8651 30.1618ZM21.8704 16.0374C20.0372 16.0374 18.2093 16.7749 16.8785 18.2339C14.3559 20.9861 14.5483 25.272 17.3007 27.789C20.0532 30.3061 24.3396 30.1137 26.8569 27.3615C29.3742 24.6093 29.1818 20.3234 26.4294 17.8063C25.136 16.62 23.5005 16.0374 21.8651 16.0374H21.8704Z" fill="#A38B51"/>
<circle cx="24.5" cy="24.5" r="16.2" stroke="#A38B51" stroke-width="0.6"/>
</svg>
