<svg width="58" height="39" viewBox="0 0 58 39" fill="none" xmlns="http://www.w3.org/2000/svg">
<path d="M41.7418 39.0002H16.2593C14.0793 39.0002 12.3037 37.4238 12.3037 35.4841V16.641C12.3037 14.7014 14.0793 13.125 16.2593 13.125H41.7418C43.9217 13.125 45.6973 14.7014 45.6973 16.641V35.4841C45.6973 37.4238 43.9217 39.0002 41.7418 39.0002ZM16.2593 13.9044C14.5628 13.9044 13.1827 15.1321 13.1827 16.641V35.4841C13.1827 36.9931 14.5628 38.2208 16.2593 38.2208H41.7418C43.4383 38.2208 44.8183 36.9931 44.8183 35.4841V16.641C44.8183 15.1321 43.4383 13.9044 41.7418 13.9044H16.2593Z" fill="#282315"/>
<path d="M15.5565 34.5345C15.4451 34.5345 15.3308 34.4964 15.2459 34.4203C15.073 34.2679 15.073 34.0189 15.2459 33.8665L22.3483 27.5523C22.5211 27.3999 22.7995 27.3999 22.9694 27.5523C23.1423 27.7046 23.1423 27.9537 22.9694 28.106L15.867 34.4203C15.7821 34.4964 15.6678 34.5345 15.5565 34.5345Z" fill="#282315"/>
<path d="M42.445 34.5345C42.3337 34.5345 42.2194 34.4964 42.1344 34.4203L35.0349 28.106C34.8621 27.9537 34.8621 27.7046 35.0349 27.5523C35.2078 27.3999 35.4862 27.3999 35.6561 27.5523L42.7556 33.8665C42.9284 34.0189 42.9284 34.2679 42.7556 34.4203C42.6706 34.4964 42.5563 34.5345 42.445 34.5345Z" fill="#282315"/>
<path d="M29.0014 29.079C27.9818 29.079 27.0236 28.7274 26.3087 28.0887L15.2478 18.2584C15.0749 18.106 15.0749 17.857 15.2478 17.7046C15.4207 17.5522 15.699 17.5522 15.869 17.7046L26.9299 27.5349C27.4807 28.0242 28.2162 28.2967 29.0014 28.2967C29.7896 28.2967 30.525 28.0271 31.0788 27.5349L42.1368 17.7046C42.3096 17.5522 42.588 17.5522 42.7579 17.7046C42.9308 17.857 42.9308 18.106 42.7579 18.2584L31.7 28.0887C30.9821 28.7274 30.024 29.079 29.0014 29.079Z" fill="#282315"/>
</svg>
