<svg width="58" height="39" viewBox="0 0 58 39" fill="none" xmlns="http://www.w3.org/2000/svg">
<path d="M35.9219 12.668C38.6082 12.668 40.7938 14.8507 40.7939 17.5332C40.7939 20.2158 38.6083 22.3984 35.9219 22.3984C33.2355 22.3984 31.0498 20.2158 31.0498 17.5332C31.0499 14.8507 33.2355 12.668 35.9219 12.668ZM35.9219 13.1494C33.5015 13.1494 31.5314 15.116 31.5312 17.5332C31.5312 19.9505 33.5014 21.918 35.9219 21.918C38.3423 21.918 40.3125 19.9505 40.3125 17.5332C40.3124 15.116 38.3423 13.1494 35.9219 13.1494Z" fill="#282315" stroke="#282315" stroke-width="0.1"/>
<path d="M35.9208 20.3473C34.3678 20.3473 33.1045 19.0856 33.1045 17.5336C33.1045 17.3733 33.2348 17.2432 33.3953 17.2432C33.5559 17.2432 33.6861 17.3733 33.6861 17.5336C33.6861 18.765 34.6889 19.7664 35.9208 19.7664C36.0814 19.7664 36.2117 19.8965 36.2117 20.0568C36.2117 20.2172 36.0814 20.3473 35.9208 20.3473Z" fill="#282315"/>
<path d="M45.4727 8.93604C47.6657 8.93604 49.45 10.7179 49.4502 12.9077C49.4502 15.0978 47.6658 16.8804 45.4727 16.8804C43.2795 16.8804 41.4951 15.0978 41.4951 12.9077C41.4953 10.7178 43.2796 8.93604 45.4727 8.93604ZM45.4727 9.41748C43.5456 9.41748 41.9768 10.9831 41.9766 12.9077C41.9766 14.8325 43.5454 16.3989 45.4727 16.3989C47.3999 16.3989 48.9688 14.8325 48.9688 12.9077C48.9685 10.9831 47.3997 9.41748 45.4727 9.41748Z" fill="#282315" stroke="#282315" stroke-width="0.1"/>
<path d="M45.4735 14.8278C44.4138 14.8278 43.5518 13.9669 43.5518 12.9086C43.5518 12.7483 43.682 12.6182 43.8426 12.6182C44.0031 12.6182 44.1334 12.7483 44.1334 12.9086C44.1334 13.6474 44.7348 14.2469 45.4735 14.2469C45.6341 14.2469 45.7644 14.377 45.7644 14.5373C45.7644 14.6976 45.6341 14.8278 45.4735 14.8278Z" fill="#282315"/>
<path d="M37.5361 6.06689C38.9532 6.06709 40.1055 7.21825 40.1055 8.6333C40.1055 10.0483 38.9532 11.1995 37.5361 11.1997C36.1189 11.1997 34.9658 10.0485 34.9658 8.6333C34.9658 7.21813 36.1189 6.06689 37.5361 6.06689ZM37.5361 6.54932C36.3849 6.54932 35.4474 7.48446 35.4473 8.63428C35.4473 9.78418 36.3848 10.7202 37.5361 10.7202C38.6873 10.72 39.624 9.78406 39.624 8.63428C39.6239 7.48458 38.6872 6.54951 37.5361 6.54932Z" fill="#282315" stroke="#282315" stroke-width="0.1"/>
<path d="M29.7987 36.983C29.6482 36.983 29.4977 36.983 29.3472 36.9801L23.1368 36.8818C20.9344 36.8558 17.5572 35.7966 14.5764 34.8617C13.3739 34.4845 12.2366 34.1276 11.3655 33.9036C11.1716 33.8545 11.0559 33.6566 11.1051 33.4644C11.1543 33.2707 11.3525 33.1551 11.5449 33.2043C12.4348 33.4326 13.5809 33.7924 14.7934 34.1724C17.5818 35.0467 21.0502 36.1348 23.1469 36.1593L29.3574 36.2576C34.186 36.3139 38.9075 35.4628 43.3859 33.7303L48.9554 31.5815C49.4502 31.3893 49.8337 31.0223 50.0363 30.5469C50.2302 30.0917 50.2331 29.5874 50.0421 29.1293C49.7642 28.4617 49.0972 28.0008 48.3418 27.9531C48.2232 27.9473 48.119 27.9487 48.0177 27.9588L35.6113 29.1524C35.413 29.1727 35.235 29.0267 35.2162 28.8273C35.1974 28.6293 35.3421 28.4516 35.5418 28.4328L47.9468 27.2392C48.0843 27.2262 48.2218 27.2233 48.3824 27.232C49.4141 27.297 50.3257 27.9328 50.7091 28.8519C50.9754 29.4906 50.9725 30.1928 50.7004 30.8301C50.4212 31.4847 49.893 31.9905 49.2158 32.2549L43.6449 34.4051C39.22 36.116 34.5636 36.983 29.7973 36.983H29.7987Z" fill="#282315"/>
<path d="M26.8108 30.3992C26.6791 30.3992 26.5532 30.327 26.4881 30.2027C26.3969 30.025 26.4664 29.8068 26.6444 29.7157L33.2094 26.3474C33.7086 26.0627 34.037 25.6697 34.134 25.2391C34.2237 24.8431 34.121 24.4183 33.8359 24.0108C33.4944 23.5238 32.9315 23.2117 32.3296 23.1741C32.14 23.1626 31.9418 23.1799 31.7551 23.2247C31.7435 23.2276 31.7334 23.2291 31.7218 23.2305C28.2129 23.716 26.041 24.3735 23.9399 25.0079C21.6436 25.7015 19.4745 26.3575 15.8093 26.7376C15.8035 26.7376 15.7992 26.7376 15.7934 26.7376L12.0862 26.9601C11.8865 26.9731 11.7158 26.8199 11.7028 26.6205C11.6912 26.4211 11.8431 26.2506 12.0428 26.2376L15.7428 26.0165C19.3342 25.6437 21.4699 24.9992 23.7301 24.3157C25.8543 23.6741 28.0508 23.0109 31.6061 22.5167C31.855 22.4603 32.1198 22.4386 32.373 22.4531C33.1934 22.5022 33.9618 22.9299 34.4292 23.5961C34.8343 24.1755 34.9761 24.7983 34.8401 25.398C34.6969 26.0309 34.2425 26.5916 33.561 26.9789C33.5566 26.9818 33.5523 26.9832 33.5479 26.9861L26.9757 30.3573C26.9222 30.3848 26.8658 30.3978 26.8108 30.3978V30.3992Z" fill="#282315"/>
</svg>
