<svg width="50" height="50" viewBox="0 0 50 50" fill="none" xmlns="http://www.w3.org/2000/svg">
<path d="M32.0829 36.0644H17.0728C16.6902 36.0644 16.3196 35.8971 16.0625 35.6161C15.8055 35.3292 15.6799 34.9466 15.7218 34.564L17.2222 20.3011C17.2999 19.5598 17.9216 19.0039 18.6628 19.0039H20.7551C20.8866 19.0039 21.0001 19.1115 21.0001 19.249C21.0001 19.3865 20.8925 19.4941 20.7551 19.4941H18.6628C18.1667 19.4941 17.7542 19.8647 17.7064 20.3549L16.206 34.6178C16.1821 34.8629 16.2598 35.108 16.4212 35.2933C16.5886 35.4786 16.8217 35.5802 17.0668 35.5802H32.0769C32.322 35.5802 32.5611 35.4726 32.7225 35.2933C32.8899 35.108 32.9676 34.8689 32.9377 34.6178L31.4373 20.3549C31.3835 19.8647 30.977 19.4941 30.4809 19.4941H29.9548C29.8233 19.4941 29.7097 19.3865 29.7097 19.249C29.7097 19.1115 29.8173 19.0039 29.9548 19.0039H30.4809C31.2221 19.0039 31.8438 19.5598 31.9215 20.3011L33.4219 34.564C33.4638 34.9466 33.3382 35.3292 33.0812 35.6161C32.8241 35.903 32.4595 36.0644 32.071 36.0644H32.0829Z" fill="#A38B51"/>
<path d="M28.3954 19.4941H22.334C22.2024 19.4941 22.0889 19.3865 22.0889 19.249C22.0889 19.1115 22.1965 19.0039 22.334 19.0039H28.3954C28.5269 19.0039 28.6405 19.1115 28.6405 19.249C28.6405 19.3865 28.5329 19.4941 28.3954 19.4941Z" fill="#A38B51"/>
<path d="M28.3954 21.0483C28.2639 21.0483 28.1503 20.9407 28.1503 20.8033V16.9954C28.1503 15.0228 26.5483 13.4207 24.5756 13.4207C22.603 13.4207 21.0009 15.0228 21.0009 16.9954V20.8033C21.0009 20.9348 20.8933 21.0483 20.7558 21.0483C20.6183 21.0483 20.5107 20.9407 20.5107 20.8033V16.9954C20.5107 14.7538 22.334 12.9365 24.5696 12.9365C26.8053 12.9365 28.6285 14.7597 28.6285 16.9954V20.8033C28.6285 20.9348 28.5209 21.0483 28.3834 21.0483H28.3954Z" fill="#A38B51"/>
<circle cx="24.5" cy="24.5" r="16.2" stroke="#A38B51" stroke-width="0.6"/>
</svg>
