<svg width="58" height="39" viewBox="0 0 58 39" fill="none" xmlns="http://www.w3.org/2000/svg">
<path d="M42.9752 17.8616C42.936 17.8616 42.8968 17.8556 42.8576 17.8438C42.6601 17.7801 42.5515 17.5712 42.6163 17.3771L44.4889 11.7444C44.4889 11.7444 44.4919 11.7385 44.4919 11.734C44.9985 10.3459 44.3698 8.83918 43.0611 8.30583L42.0283 7.88361C40.7227 7.35026 39.1924 7.97546 38.5471 9.30882C38.5471 9.31178 38.5441 9.31474 38.5425 9.31771L34.2094 17.6601C34.1145 17.8423 33.8868 17.9149 33.7029 17.8216C33.5174 17.7282 33.4435 17.506 33.5385 17.3238L37.8701 8.98585C38.6903 7.29989 40.6443 6.51617 42.3193 7.20063L43.3521 7.62286C45.0302 8.30732 45.8428 10.2199 45.2051 11.98L43.334 17.6082C43.2827 17.7638 43.135 17.8631 42.9752 17.8631V17.8616Z" fill="#282315"/>
<path d="M35.217 38.9982H26.6337C23.1675 38.9982 19.8973 37.2115 18.1017 34.3344C17.5001 33.3744 16.9573 32.3181 16.4402 31.1062C16.3603 30.918 16.4508 30.7003 16.6422 30.6217C16.8337 30.5432 17.0553 30.6321 17.1353 30.8203C17.6373 31.9966 18.1635 33.0203 18.744 33.9477C20.4039 36.607 23.4269 38.2589 26.6337 38.2589H35.217C38.4239 38.2589 41.4468 36.607 43.1037 33.9477C44.8964 31.078 46.2262 27.2943 47.4157 21.6779C47.4926 21.3119 47.3977 20.9342 47.1579 20.6438C46.9197 20.3578 46.5684 20.1934 46.193 20.1934H31.6528C31.4448 20.1934 31.2759 20.0275 31.2759 19.823C31.2759 19.6186 31.4448 19.4526 31.6528 19.4526H46.193C46.7961 19.4526 47.3615 19.7163 47.7429 20.1756C48.1274 20.6393 48.2781 21.2408 48.1545 21.8275C46.9453 27.5328 45.5869 31.3906 43.7475 34.3359C41.9549 37.213 38.6862 38.9997 35.2185 38.9997L35.217 38.9982Z" fill="#282315"/>
<path d="M34.8008 36.2756C34.5927 36.2756 34.4238 36.1097 34.4238 35.9052C34.4238 35.7008 34.5927 35.5348 34.8008 35.5348C37.1045 35.5348 39.2711 34.3541 40.4561 32.4518C40.5647 32.277 40.7968 32.2222 40.9747 32.3289C41.1527 32.4355 41.2084 32.6637 41.0999 32.8385C39.7791 34.9585 37.3653 36.2756 34.8023 36.2756H34.8008Z" fill="#282315"/>
<path d="M22.7354 29.025C22.5605 29.025 22.3856 29.0146 22.2122 28.9954C21.1614 28.8739 20.2372 28.3998 19.5768 27.6487C18.1565 29.2443 15.595 29.4769 13.6877 28.1243C12.7153 27.4354 12.0534 26.4398 11.8242 25.3227C11.6207 24.3301 11.7805 23.3449 12.2735 22.5093C11.3749 22.1212 10.6543 21.4189 10.2216 20.4989C9.73457 19.4648 9.67125 18.2781 10.0421 17.1566C10.7719 14.9581 12.9791 13.6603 15.0854 14.124C15.2633 11.9921 17.2127 10.3076 19.5843 10.3076C21.9559 10.3076 23.9024 11.9921 24.0803 14.124C26.1865 13.6588 28.3953 14.9566 29.1235 17.1566C29.4944 18.2767 29.4311 19.4633 28.9441 20.4989C28.5114 21.4204 27.7892 22.1227 26.8876 22.5108C27.9611 24.3286 27.3866 26.7687 25.5005 28.1228C24.6803 28.7124 23.7139 29.025 22.7369 29.025H22.7354ZM19.4999 26.7776C19.5225 26.7776 19.5436 26.779 19.5662 26.7835L19.7456 26.8146C19.8406 26.8309 19.9266 26.8842 19.9839 26.9613C20.5251 27.6887 21.3468 28.1494 22.2997 28.2591C23.2616 28.3702 24.2401 28.1094 25.0542 27.5242C26.7263 26.3242 27.174 24.1168 26.0508 22.6056C25.9694 22.496 25.9558 22.3508 26.0146 22.2278L26.0584 22.1375C26.1021 22.0456 26.1835 21.976 26.283 21.9434C27.156 21.6649 27.857 21.0412 28.2596 20.1863C28.6667 19.3226 28.7179 18.327 28.4058 17.3848C27.7666 15.4499 25.7719 14.3447 23.9597 14.924C23.8225 14.967 23.6717 14.9314 23.5722 14.8292L23.4455 14.7003C23.3777 14.6307 23.34 14.5388 23.34 14.4425C23.34 12.5699 21.6544 11.0484 19.5843 11.0484C17.5143 11.0484 15.8256 12.5714 15.8256 14.4425C15.8256 14.5373 15.788 14.6277 15.7231 14.6973L15.5995 14.8262C15.5 14.9299 15.3477 14.9685 15.209 14.924C13.3968 14.3462 11.4021 15.4514 10.7598 17.3863C10.4477 18.3285 10.5005 19.3226 10.9076 20.1878C11.3101 21.0426 12.0112 21.6664 12.8826 21.9449C12.9972 21.9819 13.0877 22.0693 13.1254 22.1834L13.157 22.2812C13.1947 22.3938 13.1751 22.5167 13.1043 22.613C12.5675 23.3449 12.3745 24.256 12.5645 25.179C12.756 26.1124 13.3108 26.9465 14.1295 27.5257C15.8076 28.7169 18.0812 28.4502 19.1968 26.9346C19.2677 26.8368 19.3823 26.7805 19.5029 26.7805L19.4999 26.7776Z" fill="#282315"/>
<path d="M19.5825 22.8215C17.8125 22.8215 16.3711 21.4066 16.3711 19.6659C16.3711 17.9251 17.8109 16.5103 19.5825 16.5103C21.354 16.5103 22.7939 17.9251 22.7939 19.6659C22.7939 21.4066 21.354 22.8215 19.5825 22.8215ZM19.5825 17.251C18.2271 17.251 17.1249 18.334 17.1249 19.6659C17.1249 20.9977 18.2271 22.0807 19.5825 22.0807C20.9379 22.0807 22.04 20.9977 22.04 19.6659C22.04 18.334 20.9379 17.251 19.5825 17.251Z" fill="#282315"/>
</svg>
