<svg width="58" height="39" viewBox="0 0 58 39" fill="none" xmlns="http://www.w3.org/2000/svg">
<path d="M35.1044 32.7767H22.8957C19.8586 32.7767 16.962 31.9353 14.5191 30.3413C12.0761 28.749 10.3137 26.5527 9.42241 23.9916L6.52175 15.6546C6.47559 15.52 6.50376 15.3748 6.59811 15.2614C6.69245 15.1481 6.84296 15.0825 7.00154 15.0825H37.5212C37.7982 15.0825 38.023 15.2809 38.023 15.5253C38.023 15.7697 37.7982 15.9681 37.5212 15.9681H7.68205L10.3839 23.7312C11.211 26.1099 12.849 28.1503 15.1173 29.6293C17.3856 31.1082 20.0754 31.8911 22.8957 31.8911H35.1044C37.9247 31.8911 40.6145 31.11 42.8828 29.6293C45.1511 28.1503 46.7871 26.1099 47.6161 23.7312L50.318 15.9681H43.1217C42.8447 15.9681 42.6198 15.7697 42.6198 15.5253C42.6198 15.2809 42.8447 15.0825 43.1217 15.0825H50.9985C51.1571 15.0825 51.3076 15.1498 51.402 15.2614C51.4963 15.373 51.5244 15.52 51.4782 15.6546L48.5777 23.9916C47.6864 26.5527 45.9239 28.749 43.481 30.3413C41.0381 31.9336 38.1415 32.7767 35.1044 32.7767Z" fill="#282315"/>
<path d="M22.8968 29.5958C18.2618 29.5958 14.2331 26.9691 12.8721 23.0583C12.7898 22.8245 12.9404 22.5766 13.2054 22.5057C13.4703 22.4331 13.7514 22.5659 13.8317 22.7997C15.0622 26.335 18.7055 28.7119 22.8968 28.7119C23.1738 28.7119 23.3986 28.9103 23.3986 29.1547C23.3986 29.3992 23.1738 29.5975 22.8968 29.5975V29.5958Z" fill="#282315"/>
<path d="M12.8661 33.9173C12.7818 33.9173 12.6975 33.8978 12.6192 33.8588C12.3784 33.7384 12.2941 33.4674 12.4306 33.2548L14.5905 29.8984C14.727 29.6859 15.0341 29.6115 15.275 29.732C15.5158 29.8524 15.6001 30.1234 15.4636 30.3359L13.3038 33.6923C13.2114 33.8358 13.0408 33.9173 12.8661 33.9173Z" fill="#282315"/>
<path d="M45.1374 33.9173C44.9628 33.9173 44.7922 33.8358 44.6999 33.6923L42.5399 30.3359C42.4034 30.1234 42.4877 29.8524 42.7286 29.732C42.9695 29.6115 43.2767 29.6859 43.4132 29.8984L45.573 33.2548C45.7095 33.4674 45.6252 33.7384 45.3843 33.8588C45.306 33.8978 45.2217 33.9173 45.1374 33.9173Z" fill="#282315"/>
</svg>
