<svg width="51" height="50" viewBox="0 0 51 50" fill="none" xmlns="http://www.w3.org/2000/svg" class="icon icon-hamburger">
<path d="M0.5 17H35.8984" stroke="#A38B51" stroke-linecap="round"/>
<path d="M0.5 25H35.8984" stroke="#A38B51" stroke-linecap="round"/>
<path d="M3.55122 43V36.952H4.31922L4.37922 37.864C4.56322 37.528 4.81922 37.268 5.14722 37.084C5.47522 36.9 5.83922 36.808 6.23922 36.808C6.53522 36.808 6.81122 36.852 7.06722 36.94C7.32322 37.028 7.54722 37.16 7.73922 37.336C7.93922 37.512 8.09522 37.74 8.20722 38.02C8.40722 37.644 8.68722 37.348 9.04722 37.132C9.41522 36.916 9.80722 36.808 10.2232 36.808C10.6872 36.808 11.0872 36.9 11.4232 37.084C11.7672 37.268 12.0352 37.548 12.2272 37.924C12.4192 38.3 12.5152 38.776 12.5152 39.352V43H11.6752V39.448C11.6752 38.808 11.5432 38.332 11.2792 38.02C11.0152 37.7 10.6472 37.54 10.1752 37.54C9.85522 37.54 9.56322 37.628 9.29922 37.804C9.03522 37.972 8.82722 38.22 8.67522 38.548C8.52322 38.868 8.44722 39.268 8.44722 39.748V43H7.60722V39.448C7.60722 38.808 7.47522 38.332 7.21122 38.02C6.95522 37.7 6.59122 37.54 6.11922 37.54C5.79122 37.54 5.49522 37.628 5.23122 37.804C4.97522 37.972 4.77122 38.224 4.61922 38.56C4.46722 38.888 4.39122 39.296 4.39122 39.784V43H3.55122ZM16.6901 43.144C16.1301 43.144 15.6341 43.012 15.2021 42.748C14.7781 42.484 14.4421 42.116 14.1941 41.644C13.9541 41.164 13.8341 40.604 13.8341 39.964C13.8341 39.324 13.9541 38.768 14.1941 38.296C14.4341 37.824 14.7701 37.46 15.2021 37.204C15.6421 36.94 16.1461 36.808 16.7141 36.808C17.2981 36.808 17.7901 36.94 18.1901 37.204C18.5981 37.468 18.9061 37.812 19.1141 38.236C19.3301 38.66 19.4381 39.124 19.4381 39.628C19.4381 39.708 19.4381 39.792 19.4381 39.88C19.4381 39.96 19.4341 40.056 19.4261 40.168H14.4701V39.46H18.6221C18.6061 38.844 18.4141 38.368 18.0461 38.032C17.6861 37.696 17.2301 37.528 16.6781 37.528C16.3181 37.528 15.9821 37.612 15.6701 37.78C15.3661 37.94 15.1181 38.18 14.9261 38.5C14.7421 38.812 14.6501 39.208 14.6501 39.688V40C14.6501 40.544 14.7461 40.996 14.9381 41.356C15.1301 41.716 15.3821 41.984 15.6941 42.16C16.0141 42.336 16.3461 42.424 16.6901 42.424C17.1461 42.424 17.5221 42.324 17.8181 42.124C18.1141 41.916 18.3261 41.632 18.4541 41.272H19.2821C19.1781 41.624 19.0101 41.944 18.7781 42.232C18.5541 42.52 18.2661 42.744 17.9141 42.904C17.5621 43.064 17.1541 43.144 16.6901 43.144ZM20.8129 43V36.952H21.5809L21.6289 38.032C21.8209 37.648 22.0969 37.348 22.4569 37.132C22.8249 36.916 23.2329 36.808 23.6809 36.808C24.1449 36.808 24.5489 36.9 24.8929 37.084C25.2369 37.268 25.5049 37.548 25.6969 37.924C25.8889 38.292 25.9849 38.764 25.9849 39.34V43H25.1449V39.436C25.1449 38.796 25.0049 38.32 24.7249 38.008C24.4449 37.696 24.0449 37.54 23.5249 37.54C23.1729 37.54 22.8529 37.628 22.5649 37.804C22.2849 37.972 22.0609 38.22 21.8929 38.548C21.7329 38.876 21.6529 39.28 21.6529 39.76V43H20.8129ZM29.7587 43.144C29.3027 43.144 28.8987 43.056 28.5467 42.88C28.2027 42.696 27.9347 42.42 27.7427 42.052C27.5507 41.676 27.4547 41.196 27.4547 40.612V36.952H28.2947V40.516C28.2947 41.156 28.4347 41.632 28.7147 41.944C29.0027 42.256 29.3987 42.412 29.9027 42.412C30.2627 42.412 30.5827 42.328 30.8627 42.16C31.1507 41.992 31.3747 41.744 31.5347 41.416C31.7027 41.08 31.7867 40.672 31.7867 40.192V36.952H32.6267V43H31.8587L31.8107 41.92C31.6187 42.312 31.3387 42.616 30.9707 42.832C30.6107 43.04 30.2067 43.144 29.7587 43.144Z" fill="#A38B51"/>
</svg>
